<svg xmlns="http://www.w3.org/2000/svg" width="48" height="48" viewBox="0 0 48 48" fill="none">
  <rect width="48" height="48" rx="10" fill="#0a0a0f"/>
  <!-- Rocket body -->
  <path d="M24 6c-1.5 0-3 1.5-5 6-1.5 3.5-2.5 7.5-2.5 12 0 4 .8 7 2 9h11c1.2-2 2-5 2-9 0-4.5-1-8.5-2.5-12-2-4.5-3.5-6-5-6z" fill="white"/>
  <!-- Nose cone -->
  <path d="M24 6c-1.5 0-3 1.5-5 6h10c-2-4.5-3.5-6-5-6z" fill="white"/>
  <!-- Window -->
  <circle cx="24" cy="20" r="3" fill="#0a0a0f"/>
  <!-- Left fin -->
  <path d="M16.5 33c-2 0-4 2-5 4l5-1v-3z" fill="white"/>
  <!-- Right fin -->
  <path d="M31.5 33c2 0 4 2 5 4l-5-1v-3z" fill="white"/>
  <!-- Flame -->
  <path d="M20 33c0 0 1 5 4 9 3-4 4-9 4-9h-8z" fill="url(#flame)"/>
  <defs>
    <linearGradient id="flame" x1="24" y1="33" x2="24" y2="42" gradientUnits="userSpaceOnUse">
      <stop offset="0" stop-color="#47bfff"/>
      <stop offset="1" stop-color="#7e14ff" stop-opacity="0"/>
    </linearGradient>
  </defs>
</svg>
